<svg xmlns="http://www.w3.org/2000/svg" viewBox="0 0 1166.62 273.34"><defs><style>.a{fill:#3a0ca3;}.b{fill:#7209b7;}.c{fill:#f72585;}.d{fill:#fefffe;}.e{fill:#322214;}</style></defs><rect class="a" y="30.37" width="728.91" height="242.97"/><rect class="b" x="15.19" y="15.19" width="728.91" height="242.97"/><rect class="c" x="30.37" width="728.91" height="242.97"/><path class="d" d="M6776.86,7243.62q-10.95,0-18.38-3.53a29.56,29.56,0,0,1-11.88-9.93,42.27,42.27,0,0,1-6.4-15.22,99.28,99.28,0,0,1,0-39.16,42.42,42.42,0,0,1,6.4-15.22,29.72,29.72,0,0,1,11.88-9.93q7.43-3.53,18.38-3.52t18.37,3.52a29.72,29.72,0,0,1,11.88,9.93,42.42,42.42,0,0,1,6.4,15.22,99.28,99.28,0,0,1,0,39.16,42.27,42.27,0,0,1-6.4,15.22,29.56,29.56,0,0,1-11.88,9.93Q6787.81,7243.62,6776.86,7243.62Zm0-11.14c4.2,0,7.58-1,10.11-3.15a19.37,19.37,0,0,0,5.76-8.45,45.16,45.16,0,0,0,2.5-11.87q.56-6.59.56-13.65,0-6.85-.56-13.55a45.5,45.5,0,0,0-2.5-12,19.39,19.39,0,0,0-5.76-8.44c-2.53-2.1-5.91-3.16-10.11-3.16s-7.74,1.06-10.21,3.16a19.74,19.74,0,0,0-5.66,8.44,45.49,45.49,0,0,0-2.51,12q-.56,6.69-.55,13.55,0,7.06.55,13.65a45.15,45.15,0,0,0,2.51,11.87,19.72,19.72,0,0,0,5.66,8.45Q6770.36,7232.48,6776.86,7232.48Z" transform="translate(-6607.72 -7062.83)"/><path class="d" d="M6898.05,7184.78a76.6,76.6,0,0,0-.55-9.46,22.72,22.72,0,0,0-2.32-7.8,13.81,13.81,0,0,0-5.11-5.38,16.94,16.94,0,0,0-8.91-2,17.83,17.83,0,0,0-9.37,2.41,20.68,20.68,0,0,0-6.59,6.31,28,28,0,0,0-3.8,8.54,35.88,35.88,0,0,0-1.21,9.1v40.46l13.92,3.71v11.13h-45.47v-11.13l13.92-3.71v-63.11l-14.11-3.71V7149h28l3.71,14.85a18.4,18.4,0,0,1,9.19-12.53q7.32-4.17,17.54-4.17,9.46,0,15.12,3.34a23.56,23.56,0,0,1,8.73,8.72,34.87,34.87,0,0,1,4.08,12.16,91.49,91.49,0,0,1,1,13.64v41.95l13.92,3.71v11.13h-31.74Z" transform="translate(-6607.72 -7062.83)"/><path class="d" d="M6977.86,7243.62q-11.13,0-18.56-3.34a28.55,28.55,0,0,1-11.88-9.65,40.38,40.38,0,0,1-6.31-15.22,99.24,99.24,0,0,1-1.85-20.05,100.56,100.56,0,0,1,1.85-20.13,38.55,38.55,0,0,1,6.41-15.22,29.37,29.37,0,0,1,12.06-9.56q7.52-3.34,18.65-3.34,9.47,0,15.78,2.6a23.6,23.6,0,0,1,10.21,7.88,33.87,33.87,0,0,1,5.57,13.37,95.16,95.16,0,0,1,1.67,19v4.55c0,1.55-.07,3.19-.19,4.92h-52.34q0,6.87.56,12.9a33.81,33.81,0,0,0,2.5,10.48,16.53,16.53,0,0,0,5.66,7.06q3.72,2.59,10.21,2.59a18,18,0,0,0,8.63-1.76,12.73,12.73,0,0,0,4.92-4.45,16.26,16.26,0,0,0,2.23-5.85,54.1,54.1,0,0,0,.74-6.13h16.89A49.52,49.52,0,0,1,7009,7225a26.25,26.25,0,0,1-5.57,9.46,27,27,0,0,1-9.93,6.69Q6987.33,7243.63,6977.86,7243.62Zm-.74-85.38a14.93,14.93,0,0,0-14.75,8.91,30.4,30.4,0,0,0-2.6,9.56q-.66,5.47-.84,11.6h35.27q0-16.71-4-23.38T6977.12,7158.24Z" transform="translate(-6607.72 -7062.83)"/><path class="d" d="M7090.15,7184.78a75.12,75.12,0,0,0-.56-9.28,25,25,0,0,0-2.22-7.88,13,13,0,0,0-5-5.48,16.92,16.92,0,0,0-8.9-2,20.74,20.74,0,0,0-9.19,1.86,17.49,17.49,0,0,0-6.22,4.91,21.06,21.06,0,0,0-3.62,7.15,30.13,30.13,0,0,0-1.21,8.54v44.36l13.92,3.71v11.13h-45.47v-11.13l13.92-3.71V7116.48l-14.1-3.71v-11.14h31.73v62.18a18,18,0,0,1,8.82-12.53q7.14-4.17,17.17-4.17,9.27,0,14.94,3.34a23.6,23.6,0,0,1,8.72,8.72,34.88,34.88,0,0,1,4.09,12.16,92.84,92.84,0,0,1,1,13.64v41.95l13.92,3.71v11.13h-31.74Z" transform="translate(-6607.72 -7062.83)"/><path class="d" d="M7170.14,7243.62q-10.95,0-18.37-3.53a29.56,29.56,0,0,1-11.88-9.93,42.27,42.27,0,0,1-6.4-15.22,99.28,99.28,0,0,1,0-39.16,42.42,42.42,0,0,1,6.4-15.22,29.72,29.72,0,0,1,11.88-9.93q7.41-3.53,18.37-3.52t18.38,3.52a29.79,29.79,0,0,1,11.88,9.93,42.42,42.42,0,0,1,6.4,15.22,99.28,99.28,0,0,1,0,39.16,42.27,42.27,0,0,1-6.4,15.22,29.63,29.63,0,0,1-11.88,9.93Q7181.09,7243.62,7170.14,7243.62Zm0-11.14q6.31,0,10.12-3.15a19.44,19.44,0,0,0,5.75-8.45,45.15,45.15,0,0,0,2.51-11.87q.56-6.59.55-13.65,0-6.85-.55-13.55a45.49,45.49,0,0,0-2.51-12,19.46,19.46,0,0,0-5.75-8.44q-3.81-3.15-10.12-3.16-6.49,0-10.21,3.16a19.83,19.83,0,0,0-5.66,8.44,45.5,45.5,0,0,0-2.5,12q-.56,6.69-.56,13.55,0,7.06.56,13.65a45.16,45.16,0,0,0,2.5,11.87,19.8,19.8,0,0,0,5.66,8.45Q7163.65,7232.48,7170.14,7232.48Z" transform="translate(-6607.72 -7062.83)"/><path class="d" d="M7218.4,7152.68l13.92-3.72,3.71-24.31H7250V7149h17.45v13.55H7250V7213q0,8.53,2,12.43a7,7,0,0,0,6.68,3.9,31.36,31.36,0,0,0,5.2-.56,41.59,41.59,0,0,0,5.94-1.48l3.9,10.39a20.88,20.88,0,0,1-8.08,4.27,36.54,36.54,0,0,1-11,1.67q-11.7,0-17-7.33t-5.29-23.29v-50.49H7218.4Z" transform="translate(-6607.72 -7062.83)"/><path class="e" d="M7450.38,7129l-5.8-1.35v-4.05h12.21v45.56l5.07,1.35v4.05h-10.13l-1.35-4.86a8.13,8.13,0,0,1-3.17,4.05,10.71,10.71,0,0,1-6,1.48,10.47,10.47,0,0,1-5.6-1.38,10.13,10.13,0,0,1-3.54-3.75,17.65,17.65,0,0,1-1.89-5.57,39,39,0,0,1-.58-6.85,41.27,41.27,0,0,1,.54-6.85,16.72,16.72,0,0,1,1.89-5.56,10.4,10.4,0,0,1,3.55-3.75,10.27,10.27,0,0,1,5.57-1.38,11.21,11.21,0,0,1,6.1,1.51,7.13,7.13,0,0,1,3.14,4.49Zm-7.56,15.86a4.6,4.6,0,0,0-3.17,1.08,7.43,7.43,0,0,0-1.92,2.84,15.5,15.5,0,0,0-1,4.11,42.91,42.91,0,0,0-.27,4.86,41.64,41.64,0,0,0,.27,4.86,15.41,15.41,0,0,0,1,4.05,7.12,7.12,0,0,0,1.92,2.8,4.68,4.68,0,0,0,3.17,1,7.11,7.11,0,0,0,3.31-.74,6.8,6.8,0,0,0,2.36-2,9.28,9.28,0,0,0,1.42-2.87,11.77,11.77,0,0,0,.47-3.34v-8.3a9.45,9.45,0,0,0-1.89-5.91A6.7,6.7,0,0,0,7442.82,7144.83Z" transform="translate(-6607.72 -7062.83)"/><path class="e" d="M7475.49,7175.2a14.91,14.91,0,0,1-3.54-.44,9.51,9.51,0,0,1-3.41-1.55,8.49,8.49,0,0,1-2.57-3,10.5,10.5,0,0,1-1-4.89,11.14,11.14,0,0,1,.67-3.95,7.56,7.56,0,0,1,2.16-3.07,11.29,11.29,0,0,1,3.88-2.06,24.53,24.53,0,0,1,5.91-1l7-.33v-3a10,10,0,0,0-1.15-5q-1.14-2.05-4.32-2.06a6.53,6.53,0,0,0-3,.61,5.56,5.56,0,0,0-2,1.62,6.69,6.69,0,0,0-1.14,2.26,8.51,8.51,0,0,0-.38,2.46h-5.73v-11h4.38l1.35,4.25h.27a8.32,8.32,0,0,1,3.65-3.78,11.85,11.85,0,0,1,5.33-1.14,9.69,9.69,0,0,1,6.72,2.16c1.59,1.44,2.39,3.75,2.39,6.95v19.91l5.06,1.35v4.05H7486l-1.35-4.86a6.7,6.7,0,0,1-1.62,2.83,8.42,8.42,0,0,1-2.36,1.69,9.8,9.8,0,0,1-2.67.81A17.86,17.86,0,0,1,7475.49,7175.2Zm1.82-4.72a6.53,6.53,0,0,0,3.44-.85,6.6,6.6,0,0,0,2.26-2.16,8.94,8.94,0,0,0,1.22-3,14.71,14.71,0,0,0,.37-3.27v-2.83l-6,.33a11.54,11.54,0,0,0-3.51.68,6.09,6.09,0,0,0-2.16,1.38,4.59,4.59,0,0,0-1.11,1.89,8,8,0,0,0-.3,2.2,6.17,6.17,0,0,0,.54,2.76,4.93,4.93,0,0,0,1.35,1.72,4.53,4.53,0,0,0,1.85.88A9.25,9.25,0,0,0,7477.31,7170.48Z" transform="translate(-6607.72 -7062.83)"/><path class="e" d="M7497.29,7142.13l5.06-1.35,1.35-8.84h5.06v8.84h6.35v4.93h-6.35v18.36a10.36,10.36,0,0,0,.74,4.52,2.56,2.56,0,0,0,2.43,1.42,10.81,10.81,0,0,0,1.89-.21,13.64,13.64,0,0,0,2.16-.54l1.42,3.78a7.49,7.49,0,0,1-2.94,1.55,13.08,13.08,0,0,1-4,.61c-2.84,0-4.89-.89-6.18-2.66s-1.92-4.6-1.92-8.47v-18.36h-5.06Z" transform="translate(-6607.72 -7062.83)"/><path class="e" d="M7530.49,7175.2a15,15,0,0,1-3.54-.44,9.59,9.59,0,0,1-3.41-1.55,8.47,8.47,0,0,1-2.56-3,10.37,10.37,0,0,1-1-4.89,11.14,11.14,0,0,1,.68-3.95,7.56,7.56,0,0,1,2.16-3.07,11.2,11.2,0,0,1,3.88-2.06,24.53,24.53,0,0,1,5.91-1l7-.33v-3a10.1,10.1,0,0,0-1.14-5q-1.16-2.05-4.32-2.06a6.53,6.53,0,0,0-3,.61,5.47,5.47,0,0,0-2,1.62,6.9,6.9,0,0,0-1.15,2.26,8.49,8.49,0,0,0-.37,2.46h-5.74v-11h4.39l1.35,4.25h.27a8.3,8.3,0,0,1,3.64-3.78,11.86,11.86,0,0,1,5.34-1.14,9.68,9.68,0,0,1,6.71,2.16c1.6,1.44,2.4,3.75,2.4,6.95v19.91l5.06,1.35v4.05H7541l-1.35-4.86a6.79,6.79,0,0,1-1.61,2.83,8.46,8.46,0,0,1-2.37,1.69,9.63,9.63,0,0,1-2.66.81A18.12,18.12,0,0,1,7530.49,7175.2Zm1.83-4.72a6.55,6.55,0,0,0,3.44-.85,6.69,6.69,0,0,0,2.26-2.16,8.93,8.93,0,0,0,1.21-3,14.71,14.71,0,0,0,.37-3.27v-2.83l-6,.33a11.54,11.54,0,0,0-3.51.68,6.09,6.09,0,0,0-2.16,1.38,4.59,4.59,0,0,0-1.11,1.89,7.6,7.6,0,0,0-.31,2.2,6.17,6.17,0,0,0,.54,2.76,4.93,4.93,0,0,0,1.35,1.72,4.57,4.57,0,0,0,1.86.88A9.12,9.12,0,0,0,7532.32,7170.48Z" transform="translate(-6607.72 -7062.83)"/><path class="e" d="M7571.93,7170.34l-1.35,4.19h-3.78v-10.46h5.81c0,2.38.59,4.1,1.79,5.16a6.14,6.14,0,0,0,4.22,1.59,6.58,6.58,0,0,0,3.44-1,3.39,3.39,0,0,0,1.62-3.14,3.51,3.51,0,0,0-1.22-2.8,12.38,12.38,0,0,0-3-1.86c-1.19-.54-2.49-1.08-3.88-1.62a17.45,17.45,0,0,1-3.88-2.09,11,11,0,0,1-3-3.27,9.82,9.82,0,0,1-1.21-5.17,10.87,10.87,0,0,1,.84-4.49,8.85,8.85,0,0,1,2.2-3,8.52,8.52,0,0,1,3-1.72,10.47,10.47,0,0,1,3.27-.54,9.14,9.14,0,0,1,2.23.27,6.45,6.45,0,0,1,2,.87,5.38,5.38,0,0,1,1.52,1.56,5.71,5.71,0,0,1,.81,2.22h.27l1.35-4.25h3.78v10.53H7583a7.92,7.92,0,0,0-1.55-5,4.94,4.94,0,0,0-4.05-1.83,4.07,4.07,0,0,0-2.94,1.08,3.87,3.87,0,0,0-1.11,2.91,3.77,3.77,0,0,0,1.22,3,12.49,12.49,0,0,0,3,1.92c1.19.56,2.5,1.11,3.91,1.65a18,18,0,0,1,3.92,2.06,11,11,0,0,1,3,3.17,9.32,9.32,0,0,1,1.22,5,10.59,10.59,0,0,1-.88,4.46,9.32,9.32,0,0,1-2.26,3.1,8.81,8.81,0,0,1-3.17,1.79,11.88,11.88,0,0,1-3.61.57,11.67,11.67,0,0,1-2.47-.27,7.34,7.34,0,0,1-2.26-.88,6.67,6.67,0,0,1-1.75-1.51,5,5,0,0,1-1-2.2Z" transform="translate(-6607.72 -7062.83)"/><path class="e" d="M7608.58,7175.2a15.12,15.12,0,0,1-6.61-1.28,10.38,10.38,0,0,1-4.19-3.61,15,15,0,0,1-2.16-5.54,38.77,38.77,0,0,1-.6-7.12,33.31,33.31,0,0,1,.7-7.12A16.83,16.83,0,0,1,7598,7145a10.64,10.64,0,0,1,3.88-3.61,11.85,11.85,0,0,1,5.74-1.28,10.5,10.5,0,0,1,5,1.11,5.21,5.21,0,0,1,2.6,3.81h.27l1.35-4.25h3.71v11h-5.74a11.58,11.58,0,0,0-.27-2.46,6,6,0,0,0-1-2.26,5,5,0,0,0-1.89-1.62,6.27,6.27,0,0,0-2.93-.61,5.63,5.63,0,0,0-3.65,1.05,6.5,6.5,0,0,0-1.95,2.83,13.64,13.64,0,0,0-.81,4.12c-.1,1.55-.14,3.16-.14,4.82s0,3.37.14,5a15.29,15.29,0,0,0,.81,4.31,7.2,7.2,0,0,0,1.95,3.08,5.32,5.32,0,0,0,3.65,1.14,4.91,4.91,0,0,0,2.76-.74,5.32,5.32,0,0,0,1.83-2,10,10,0,0,0,1-2.87,18.11,18.11,0,0,0,.3-3.31h5.87a21.63,21.63,0,0,1-.57,5.07,10.74,10.74,0,0,1-2,4.11,9.44,9.44,0,0,1-3.64,2.77A14.11,14.11,0,0,1,7608.58,7175.2Z" transform="translate(-6607.72 -7062.83)"/><path class="e" d="M7625.45,7170.48l4.93-1.35v-23.35l-5.06-1.35v-3.65h11.47v28.35l5.06,1.35v4.05h-16.4Zm7.9-36.38a4.17,4.17,0,0,1-4.32-4.32,4.1,4.1,0,0,1,1.22-3.07,4.68,4.68,0,0,1,6.21,0,4.09,4.09,0,0,1,1.21,3.07,4.16,4.16,0,0,1-4.32,4.32Z" transform="translate(-6607.72 -7062.83)"/><path class="e" d="M7659.54,7175.2a16.47,16.47,0,0,1-6.75-1.21,10.38,10.38,0,0,1-4.32-3.51,14.69,14.69,0,0,1-2.3-5.54,35.91,35.91,0,0,1-.67-7.29,36.35,36.35,0,0,1,.67-7.32,14.1,14.1,0,0,1,2.33-5.53,10.75,10.75,0,0,1,4.39-3.48,16.69,16.69,0,0,1,6.78-1.21,15.15,15.15,0,0,1,5.74.94,8.54,8.54,0,0,1,3.71,2.87,12.26,12.26,0,0,1,2,4.86,35,35,0,0,1,.6,6.92v1.65c0,.56,0,1.16-.06,1.79h-19c0,1.66.07,3.23.21,4.69a12,12,0,0,0,.91,3.81,5.9,5.9,0,0,0,2.06,2.57,6.37,6.37,0,0,0,3.71.94,6.58,6.58,0,0,0,3.14-.64,4.69,4.69,0,0,0,1.78-1.62,5.76,5.76,0,0,0,.81-2.12,18,18,0,0,0,.27-2.23h6.15a18.34,18.34,0,0,1-.85,3.88,9.45,9.45,0,0,1-2,3.44,9.9,9.9,0,0,1-3.61,2.43A15.09,15.09,0,0,1,7659.54,7175.2Zm-.27-31a5.93,5.93,0,0,0-3.38.87,6,6,0,0,0-2,2.37,10.88,10.88,0,0,0-.94,3.47c-.16,1.33-.26,2.73-.31,4.22h12.83c0-4.05-.49-6.88-1.45-8.5A5.12,5.12,0,0,0,7659.27,7144.16Z" transform="translate(-6607.72 -7062.83)"/><path class="e" d="M7701.92,7153.81a28.7,28.7,0,0,0-.2-3.44,8.52,8.52,0,0,0-.84-2.84,5.07,5.07,0,0,0-1.86-2,6.22,6.22,0,0,0-3.24-.74,6.41,6.41,0,0,0-3.41.88A7.47,7.47,0,0,0,7690,7148a10.15,10.15,0,0,0-1.39,3.11,13.14,13.14,0,0,0-.44,3.3v14.72l5.07,1.35v4.05h-16.54v-4.05l5.06-1.35v-22.95l-5.13-1.35v-4.05h10.19l1.35,5.4a6.74,6.74,0,0,1,3.34-4.56,12.73,12.73,0,0,1,6.38-1.51,10.76,10.76,0,0,1,5.5,1.21,8.53,8.53,0,0,1,3.17,3.17,12.62,12.62,0,0,1,1.49,4.42,33.06,33.06,0,0,1,.37,5v15.25l5.06,1.35v4.05h-11.54Z" transform="translate(-6607.72 -7062.83)"/><path class="e" d="M7730.47,7175.2a15.12,15.12,0,0,1-6.61-1.28,10.38,10.38,0,0,1-4.19-3.61,15,15,0,0,1-2.16-5.54,38.77,38.77,0,0,1-.6-7.12,33.31,33.31,0,0,1,.7-7.12,16.83,16.83,0,0,1,2.23-5.53,10.64,10.64,0,0,1,3.88-3.61,11.85,11.85,0,0,1,5.74-1.28,10.5,10.5,0,0,1,5,1.11,5.2,5.2,0,0,1,2.59,3.81h.27l1.36-4.25h3.71v11h-5.74a11.58,11.58,0,0,0-.27-2.46,6.2,6.2,0,0,0-1-2.26,5,5,0,0,0-1.89-1.62,6.29,6.29,0,0,0-2.93-.61,5.63,5.63,0,0,0-3.65,1.05,6.6,6.6,0,0,0-2,2.83,14,14,0,0,0-.81,4.12c-.09,1.55-.13,3.16-.13,4.82s0,3.37.13,5a15.65,15.65,0,0,0,.81,4.31,7.31,7.31,0,0,0,2,3.08,5.32,5.32,0,0,0,3.65,1.14,4.91,4.91,0,0,0,2.76-.74,5.32,5.32,0,0,0,1.83-2,10,10,0,0,0,1-2.87,17.27,17.27,0,0,0,.31-3.31h5.87a21.63,21.63,0,0,1-.57,5.07,10.74,10.74,0,0,1-2,4.11,9.4,9.4,0,0,1-3.65,2.77A14,14,0,0,1,7730.47,7175.2Z" transform="translate(-6607.72 -7062.83)"/><path class="e" d="M7762.12,7175.2a16.39,16.39,0,0,1-6.74-1.21,10.35,10.35,0,0,1-4.33-3.51,14.85,14.85,0,0,1-2.29-5.54,35.91,35.91,0,0,1-.67-7.29,36.35,36.35,0,0,1,.67-7.32,14.1,14.1,0,0,1,2.33-5.53,10.62,10.62,0,0,1,4.39-3.48,16.69,16.69,0,0,1,6.78-1.21,15.18,15.18,0,0,1,5.74.94,8.66,8.66,0,0,1,3.71,2.87,12.25,12.25,0,0,1,2,4.86,34.15,34.15,0,0,1,.61,6.92v1.65c0,.56,0,1.16-.07,1.79h-19c0,1.66.07,3.23.2,4.69a12.54,12.54,0,0,0,.91,3.81,6,6,0,0,0,2.06,2.57,6.39,6.39,0,0,0,3.71.94,6.55,6.55,0,0,0,3.14-.64,4.64,4.64,0,0,0,1.79-1.62,5.76,5.76,0,0,0,.81-2.12,20.19,20.19,0,0,0,.27-2.23h6.14a17.72,17.72,0,0,1-.84,3.88,9.47,9.47,0,0,1-2,3.44,9.81,9.81,0,0,1-3.61,2.43A15,15,0,0,1,7762.12,7175.2Zm-.27-31a5.39,5.39,0,0,0-5.36,3.24,11.14,11.14,0,0,0-.95,3.47c-.16,1.33-.26,2.73-.3,4.22h12.82q0-6.08-1.45-8.5A5.11,5.11,0,0,0,7761.85,7144.16Z" transform="translate(-6607.72 -7062.83)"/><path class="e" d="M7443.16,7242.69a15,15,0,0,1-6.61-1.28,10.38,10.38,0,0,1-4.19-3.61,15,15,0,0,1-2.16-5.53,38.81,38.81,0,0,1-.61-7.12,33.15,33.15,0,0,1,.71-7.12,16.8,16.8,0,0,1,2.23-5.54,10.72,10.72,0,0,1,3.88-3.61,12,12,0,0,1,5.74-1.28,10.5,10.5,0,0,1,5,1.11,5.22,5.22,0,0,1,2.59,3.82h.27l1.35-4.26h3.72v11h-5.74a11.58,11.58,0,0,0-.27-2.46,6.2,6.2,0,0,0-1-2.26,5.07,5.07,0,0,0-1.89-1.62,6.46,6.46,0,0,0-2.94-.61,5.6,5.6,0,0,0-3.64,1.05,6.52,6.52,0,0,0-2,2.83,14,14,0,0,0-.81,4.12c-.09,1.55-.13,3.16-.13,4.83s0,3.36.13,5a15.72,15.72,0,0,0,.81,4.32,7.24,7.24,0,0,0,2,3.07,5.29,5.29,0,0,0,3.64,1.14,4.92,4.92,0,0,0,2.77-.74,5.29,5.29,0,0,0,1.82-2,9.71,9.71,0,0,0,1-2.87,17.25,17.25,0,0,0,.31-3.3H7455a21,21,0,0,1-.58,5.06,10.62,10.62,0,0,1-1.95,4.12,9.56,9.56,0,0,1-3.65,2.76A13.85,13.85,0,0,1,7443.16,7242.69Z" transform="translate(-6607.72 -7062.83)"/><path class="e" d="M7474.88,7242.69a15.46,15.46,0,0,1-6.68-1.28,10.76,10.76,0,0,1-4.32-3.61,15.37,15.37,0,0,1-2.33-5.53,36.06,36.06,0,0,1,0-14.24,15.35,15.35,0,0,1,2.33-5.54,10.84,10.84,0,0,1,4.32-3.61,18.07,18.07,0,0,1,13.36,0,10.84,10.84,0,0,1,4.32,3.61,15.35,15.35,0,0,1,2.33,5.54,36.06,36.06,0,0,1,0,14.24,15.37,15.37,0,0,1-2.33,5.53,10.76,10.76,0,0,1-4.32,3.61A15.42,15.42,0,0,1,7474.88,7242.69Zm0-4a5.6,5.6,0,0,0,3.68-1.14,7.09,7.09,0,0,0,2.09-3.07,16.43,16.43,0,0,0,.91-4.32c.14-1.6.2-3.25.2-5s-.06-3.31-.2-4.93a16.4,16.4,0,0,0-.91-4.35,7.07,7.07,0,0,0-2.09-3.08,6.56,6.56,0,0,0-7.39,0,7.19,7.19,0,0,0-2.06,3.08,16.4,16.4,0,0,0-.91,4.35c-.14,1.62-.2,3.26-.2,4.93s.06,3.36.2,5a16.43,16.43,0,0,0,.91,4.32,7.22,7.22,0,0,0,2.06,3.07A5.58,5.58,0,0,0,7474.88,7238.64Z" transform="translate(-6607.72 -7062.83)"/><path class="e" d="M7493.71,7238l5.06-1.35v-22.95l-5.13-1.35v-4h10.19l1.35,5.4a7,7,0,0,1,3-4.32,9.67,9.67,0,0,1,5.77-1.75q4.38,0,6.44,1.75a8.11,8.11,0,0,1,2.67,4.66,9.46,9.46,0,0,1,9.25-6.41,11,11,0,0,1,4.82.91,7.35,7.35,0,0,1,2.9,2.43,9,9,0,0,1,1.42,3.44,20.59,20.59,0,0,1,.37,3.95v18.29l5.06,1.35V7242h-11.54v-18.36c0-1.62,0-3.11-.13-4.49a12.47,12.47,0,0,0-.71-3.57,5.39,5.39,0,0,0-1.69-2.4,4.85,4.85,0,0,0-3.07-.88,4.16,4.16,0,0,0-2.93,1.08,8.41,8.41,0,0,0-1.93,2.67,14.58,14.58,0,0,0-1.08,3.37,18.37,18.37,0,0,0-.34,3.28v13.9l5.07,1.35V7242h-11.48v-18.36c0-1.62,0-3.11-.13-4.49a12.47,12.47,0,0,0-.71-3.57,5.39,5.39,0,0,0-1.69-2.4,4.85,4.85,0,0,0-3.07-.88,4.19,4.19,0,0,0-2.83,1.05,7.91,7.91,0,0,0-2,2.56,13.78,13.78,0,0,0-1.11,3.24,15,15,0,0,0-.38,3.14v14.31l5.07,1.35V7242h-16.54Z" transform="translate(-6607.72 -7062.83)"/><path class="e" d="M7549.73,7238l5.06-1.35v-22.95l-5.13-1.35v-4h10.19l1.35,5.4a7,7,0,0,1,3-4.32,9.67,9.67,0,0,1,5.77-1.75q4.38,0,6.44,1.75a8.16,8.16,0,0,1,2.67,4.66,9.46,9.46,0,0,1,9.24-6.41,11,11,0,0,1,4.83.91,7.42,7.42,0,0,1,2.9,2.43,9,9,0,0,1,1.42,3.44,20.59,20.59,0,0,1,.37,3.95v18.29l5.06,1.35V7242h-11.54v-18.36c0-1.62,0-3.11-.13-4.49a12.82,12.82,0,0,0-.71-3.57,5.47,5.47,0,0,0-1.69-2.4,4.87,4.87,0,0,0-3.07-.88,4.2,4.2,0,0,0-2.94,1.08,8.23,8.23,0,0,0-1.92,2.67,13.68,13.68,0,0,0-1.08,3.37,17.49,17.49,0,0,0-.34,3.28v13.9l5.06,1.35V7242h-11.47v-18.36c0-1.62,0-3.11-.13-4.49a12.82,12.82,0,0,0-.71-3.57,5.47,5.47,0,0,0-1.69-2.4,4.87,4.87,0,0,0-3.07-.88,4.21,4.21,0,0,0-2.84,1.05,7.88,7.88,0,0,0-2,2.56,14.27,14.27,0,0,0-1.12,3.24,15.58,15.58,0,0,0-.37,3.14v14.31l5.06,1.35V7242h-16.53Z" transform="translate(-6607.72 -7062.83)"/><path class="e" d="M7619.11,7242.69a12.81,12.81,0,0,1-4.66-.77,9.06,9.06,0,0,1-3.24-2.13,8.52,8.52,0,0,1-1.89-3.14,11.88,11.88,0,0,1-.61-3.81v-19.17l-4-1.35v-4h10.52v20.12a33.85,33.85,0,0,0,.21,3.94,8.59,8.59,0,0,0,.84,3,4.56,4.56,0,0,0,1.79,1.92,5.68,5.68,0,0,0,3,.68,7,7,0,0,0,3.34-.74,6.49,6.49,0,0,0,2.26-2,8.82,8.82,0,0,0,1.28-2.8,12.61,12.61,0,0,0,.41-3.18v-15.59l-6.08-1.35v-4h12.49v28.35l5.13,1.35V7242h-10.19l-1.35-5.6a7.07,7.07,0,0,1-3.11,4.72A11,11,0,0,1,7619.11,7242.69Z" transform="translate(-6607.72 -7062.83)"/><path class="e" d="M7668,7221.3a28.7,28.7,0,0,0-.2-3.44,8.3,8.3,0,0,0-.85-2.84,4.88,4.88,0,0,0-1.85-2,6.12,6.12,0,0,0-3.24-.75,6.51,6.51,0,0,0-3.41.88,7.53,7.53,0,0,0-2.4,2.3,10.07,10.07,0,0,0-1.38,3.1,13.22,13.22,0,0,0-.44,3.31v14.71l5.06,1.35V7242H7642.8V7238l5.06-1.35v-22.95l-5.13-1.35v-4h10.19l1.35,5.4a6.67,6.67,0,0,1,3.34-4.55,12.63,12.63,0,0,1,6.38-1.52,10.76,10.76,0,0,1,5.5,1.21,8.56,8.56,0,0,1,3.17,3.18,12.48,12.48,0,0,1,1.49,4.42,32.83,32.83,0,0,1,.37,5v15.25l5.06,1.35V7242H7668Z" transform="translate(-6607.72 -7062.83)"/><path class="e" d="M7682.28,7238l4.93-1.35v-23.35l-5.06-1.35v-3.65h11.47v28.35l5.06,1.35V7242h-16.4Zm7.9-36.38a4.14,4.14,0,0,1-4.32-4.32,4.09,4.09,0,0,1,1.21-3.07,4.68,4.68,0,0,1,6.21,0,4.1,4.1,0,0,1,1.22,3.07,4.16,4.16,0,0,1-4.32,4.32Z" transform="translate(-6607.72 -7062.83)"/><path class="e" d="M7700.37,7209.62l5.06-1.35,1.35-8.84h5.06v8.84h6.35v4.93h-6.35v18.36a10.36,10.36,0,0,0,.74,4.52,2.56,2.56,0,0,0,2.43,1.42,10.81,10.81,0,0,0,1.89-.21,13.64,13.64,0,0,0,2.16-.54l1.42,3.78a7.5,7.5,0,0,1-2.94,1.56,13.38,13.38,0,0,1-4,.6c-2.84,0-4.89-.88-6.18-2.66s-1.92-4.6-1.92-8.47V7213.2h-5.06Z" transform="translate(-6607.72 -7062.83)"/><path class="e" d="M7724.66,7213.67l-3.3-1.35v-4h15.32v4.39l-5.33,1,7.22,23.69,7.08-23.69-5.4-1v-4.39h15.26v4l-3.38,1.35-12.82,37.46,5.13,1.35v4.05H7727v-4.25l6.41-1.15,3.37-9.11h-2.09Z" transform="translate(-6607.72 -7062.83)"/></svg>